<svg xmlns="http://www.w3.org/2000/svg" viewBox="0 0 100 100" class="icon"><defs><style>.stroke-thin-center{fill:none;stroke:#000;stroke-miterlimit:10;stroke-width:4px;}</style></defs><title>book-open</title><path d="M69.81,20A19.46,19.46,0,0,1,80,22.88V73.59A39.91,39.91,0,0,0,50,77.7a39.91,39.91,0,0,0-30-4.11V22.88A19.46,19.46,0,0,1,30.19,20a24,24,0,0,1,14.26,4.32L50,28l5.55-3.7A24,24,0,0,1,69.81,20m0-10A34.05,34.05,0,0,0,50,16a34.05,34.05,0,0,0-19.81-6A29.45,29.45,0,0,0,10,18V90a29.88,29.88,0,0,1,40,0,29.88,29.88,0,0,1,40,0V18a29.45,29.45,0,0,0-20.19-8Z"></path><line class="stroke-thin-center" x1="50" y1="24" x2="50" y2="79"></line></svg>