<svg xmlns="http://www.w3.org/2000/svg" viewBox="0 0 100 100" class="icon"><title>weather-sun</title><path d="M50,35a15,15,0,1,1-10.61,4.39A14.93,14.93,0,0,1,50,35m0-10a25,25,0,1,0,17.68,7.32A24.93,24.93,0,0,0,50,25Z"></path><polygon points="25.25 67.68 14.64 78.28 21.72 85.36 32.32 74.75 25.25 67.68 25.25 67.68"></polygon><polygon points="74.75 67.68 67.68 74.75 78.28 85.36 85.36 78.28 74.75 67.68 74.75 67.68"></polygon><polygon points="78.28 14.64 67.68 25.25 74.75 32.32 85.36 21.72 78.28 14.64 78.28 14.64"></polygon><polygon points="21.72 14.64 14.64 21.72 25.25 32.32 32.32 25.25 21.72 14.64 21.72 14.64"></polygon><polygon points="20 45 10 45 10 55 20 55 20 45 20 45"></polygon><polygon points="55 80 45 80 45 90 55 90 55 80 55 80"></polygon><polygon points="90 45 80 45 80 55 90 55 90 45 90 45"></polygon><polygon points="55 10 45 10 45 20 55 20 55 10 55 10"></polygon></svg>