<svg width="376" height="297" viewBox="0 0 376 297" fill="none" xmlns="http://www.w3.org/2000/svg">
<path fill-rule="evenodd" clip-rule="evenodd" d="M0 178.716H341.959C341.959 131.317 323.945 85.8604 291.88 52.3447C259.815 18.829 216.326 3.57848e-06 170.979 0C125.633 -3.57848e-06 82.1436 18.8289 50.0787 52.3447C18.0139 85.8604 5.71062e-05 131.317 0 178.716Z" fill="#FF8B8B" fill-opacity="0.3"/>
<path fill-rule="evenodd" clip-rule="evenodd" d="M332.719 83.5271C360.431 108.773 376 143.013 376 178.716L80.4609 178.716C80.461 143.013 96.0295 108.773 123.742 83.5271C151.454 58.2815 189.04 44.0986 228.23 44.0986C267.421 44.0986 305.007 58.2815 332.719 83.5271Z" fill="#FF795B" fill-opacity="0.5"/>
<path fill-rule="evenodd" clip-rule="evenodd" d="M318.959 140.969C333.685 150.98 341.959 164.558 341.959 178.716H263.432L184.905 178.716C184.905 164.558 193.179 150.98 207.905 140.969C222.632 130.958 242.605 125.333 263.432 125.333C284.259 125.333 304.232 130.958 318.959 140.969Z" fill="#FF6331" fill-opacity="0.6"/>
<path d="M101.224 238.252C100.669 234.71 99.4747 232.044 97.64 230.252C95.848 228.46 93.4587 227.542 90.472 227.5C88.2533 227.5 86.312 228.012 84.648 229.036C82.984 230.06 81.5973 231.425 80.488 233.132C79.4213 234.838 78.6107 236.78 78.056 238.956C77.544 241.132 77.288 243.372 77.288 245.676C77.288 249.345 77.8 252.609 78.824 255.468C79.8907 258.284 81.4267 260.502 83.432 262.124C85.4373 263.745 87.8693 264.556 90.728 264.556C93.416 264.556 96.0827 263.873 98.728 262.508C101.373 261.1 103.592 259.158 105.384 256.684L108.456 259.5C106.365 262.358 104.168 264.534 101.864 266.028C99.56 267.478 97.2987 268.46 95.08 268.972C92.904 269.484 90.9413 269.74 89.192 269.74C85.9067 269.74 82.92 269.164 80.232 268.012C77.544 266.817 75.2187 265.196 73.256 263.148C71.336 261.057 69.8427 258.646 68.776 255.916C67.752 253.142 67.24 250.156 67.24 246.956C67.24 244.054 67.7093 241.174 68.648 238.316C69.5867 235.457 70.9733 232.876 72.808 230.572C74.6853 228.225 77.032 226.369 79.848 225.004C82.664 223.596 85.928 222.892 89.64 222.892C91.304 222.892 93.1173 223.169 95.08 223.724C97.0853 224.236 98.9627 225.004 100.712 226.028L100.456 223.34H105.384V238.252H101.224ZM130.759 264.556C131.953 264.556 132.807 264.321 133.319 263.852C133.873 263.382 134.215 262.721 134.343 261.868C134.513 260.972 134.599 259.969 134.599 258.86L134.535 249.772C134.535 246.998 134.108 244.95 133.255 243.628C132.444 242.262 131.143 241.58 129.351 241.58C128.284 241.58 127.217 241.814 126.151 242.284C125.127 242.753 124.252 243.308 123.527 243.948V258.412C123.527 259.009 123.505 259.862 123.463 260.972C123.42 262.038 123.356 263.062 123.271 264.044C123.996 263.958 124.764 263.916 125.575 263.916C126.385 263.873 127.004 263.852 127.431 263.852V268.716H110.663V264.556C111.857 264.556 112.711 264.321 113.223 263.852C113.777 263.382 114.119 262.721 114.247 261.868C114.375 260.972 114.439 259.969 114.439 258.86V232.556C114.439 231.788 114.46 230.913 114.503 229.932C114.545 228.908 114.609 227.926 114.695 226.988C114.012 227.03 113.201 227.073 112.263 227.116C111.367 227.116 110.684 227.137 110.215 227.18V222.316C112.22 222.316 113.884 222.209 115.207 221.996C116.572 221.782 117.639 221.526 118.407 221.228C119.217 220.929 119.772 220.652 120.071 220.396H123.527V239.276C124.38 238.593 125.361 237.996 126.471 237.484C127.58 236.929 128.711 236.502 129.863 236.204C131.015 235.862 132.017 235.692 132.871 235.692C136.796 235.692 139.569 236.822 141.191 239.084C142.812 241.302 143.644 244.886 143.687 249.836V258.412C143.687 259.009 143.665 259.862 143.623 260.972C143.58 262.038 143.516 263.062 143.431 264.044C144.113 263.958 144.86 263.916 145.671 263.916C146.481 263.873 147.121 263.852 147.591 263.852V268.716H130.759V264.556ZM169.229 268.716C169.143 268.118 169.079 267.628 169.037 267.244C169.037 266.817 169.015 266.326 168.973 265.772C167.522 267.222 165.986 268.246 164.365 268.844C162.743 269.441 161.101 269.74 159.437 269.74C156.706 269.74 154.573 268.929 153.036 267.308C151.501 265.686 150.733 263.66 150.733 261.228C150.733 259.18 151.245 257.43 152.269 255.98C153.335 254.529 154.722 253.356 156.429 252.46C158.178 251.521 160.098 250.817 162.189 250.348C164.322 249.836 166.455 249.537 168.589 249.452V246.124C168.589 245.014 168.439 244.012 168.141 243.116C167.885 242.22 167.415 241.516 166.733 241.004C166.093 240.492 165.175 240.257 163.981 240.3C163.17 240.342 162.381 240.513 161.613 240.812C160.845 241.11 160.183 241.537 159.629 242.092C159.97 242.476 160.183 242.902 160.269 243.372C160.354 243.798 160.397 244.182 160.397 244.524C160.397 245.377 160.055 246.273 159.373 247.212C158.69 248.108 157.602 248.534 156.109 248.492C154.829 248.449 153.847 248.001 153.165 247.148C152.482 246.294 152.141 245.292 152.141 244.14C152.141 242.433 152.738 240.961 153.933 239.724C155.17 238.444 156.813 237.462 158.861 236.78C160.909 236.054 163.17 235.692 165.645 235.692C169.399 235.692 172.301 236.673 174.349 238.636C176.439 240.556 177.485 243.649 177.485 247.916C177.485 249.366 177.485 250.604 177.485 251.628C177.485 252.652 177.463 253.676 177.421 254.7C177.421 255.724 177.421 256.961 177.421 258.412C177.421 259.009 177.399 259.862 177.357 260.972C177.314 262.038 177.25 263.062 177.165 264.044C177.89 263.958 178.658 263.916 179.469 263.916C180.279 263.873 180.898 263.852 181.325 263.852V268.716H169.229ZM168.525 253.996C167.33 254.124 166.199 254.337 165.133 254.636C164.066 254.934 163.127 255.34 162.317 255.852C161.549 256.364 160.93 256.982 160.461 257.708C160.034 258.433 159.821 259.244 159.821 260.14C159.863 261.334 160.247 262.188 160.973 262.7C161.698 263.212 162.53 263.468 163.469 263.468C164.45 263.468 165.367 263.254 166.221 262.828C167.074 262.401 167.842 261.846 168.525 261.164C168.525 260.737 168.525 260.332 168.525 259.948C168.525 259.521 168.525 259.094 168.525 258.668C168.525 257.9 168.525 257.132 168.525 256.364C168.525 255.553 168.525 254.764 168.525 253.996ZM199.719 269.74C197.884 269.74 196.092 269.505 194.343 269.036C192.594 268.566 191.228 267.969 190.247 267.244L190.375 269.164H185.511L185.255 258.156H189.415C189.543 259.436 190.055 260.609 190.951 261.676C191.847 262.742 193.02 263.596 194.471 264.236C195.922 264.833 197.543 265.132 199.335 265.132C200.06 265.132 200.743 265.025 201.383 264.812C202.066 264.598 202.62 264.257 203.047 263.788C203.516 263.276 203.751 262.657 203.751 261.932C203.751 261.121 203.452 260.46 202.855 259.948C202.3 259.436 201.468 258.945 200.359 258.476C199.292 258.006 197.948 257.473 196.327 256.876C195.004 256.364 193.66 255.83 192.295 255.276C190.972 254.721 189.735 254.06 188.583 253.292C187.474 252.481 186.578 251.5 185.895 250.348C185.212 249.153 184.871 247.702 184.871 245.996C184.871 244.758 185.106 243.542 185.575 242.348C186.044 241.11 186.77 240.001 187.751 239.02C188.732 237.996 189.97 237.185 191.463 236.588C192.999 235.99 194.812 235.692 196.903 235.692C198.055 235.692 199.356 235.884 200.807 236.268C202.3 236.609 203.559 237.142 204.583 237.868V236.012H209.447V247.34H205.287C205.031 245.846 204.498 244.566 203.687 243.5C202.919 242.433 201.916 241.622 200.679 241.068C199.442 240.47 198.055 240.172 196.519 240.172C195.452 240.172 194.471 240.428 193.575 240.94C192.722 241.452 192.295 242.326 192.295 243.564C192.295 244.545 192.636 245.334 193.319 245.932C194.002 246.486 194.94 246.956 196.135 247.34C197.33 247.724 198.652 248.172 200.103 248.684C202.279 249.409 204.199 250.262 205.863 251.244C207.57 252.225 208.914 253.42 209.895 254.828C210.876 256.193 211.367 257.878 211.367 259.884C211.367 262.102 210.812 263.937 209.703 265.388C208.594 266.838 207.143 267.926 205.351 268.652C203.602 269.377 201.724 269.74 199.719 269.74ZM216.062 264.556C217.256 264.556 218.11 264.321 218.622 263.852C219.134 263.382 219.454 262.721 219.582 261.868C219.752 260.972 219.838 259.969 219.838 258.86V248.236C219.838 247.468 219.859 246.593 219.902 245.612C219.944 244.588 220.008 243.606 220.094 242.668C219.411 242.71 218.6 242.753 217.661 242.796C216.766 242.796 216.083 242.817 215.614 242.86V237.996C217.576 237.996 219.24 237.889 220.606 237.676C221.971 237.462 223.038 237.206 223.806 236.908C224.616 236.609 225.171 236.332 225.47 236.076H228.926V258.412C228.926 259.009 228.904 259.862 228.862 260.972C228.819 262.038 228.755 263.062 228.67 264.044C229.352 263.958 230.099 263.916 230.91 263.916C231.763 263.873 232.403 263.852 232.83 263.852V268.716H216.062V264.556ZM224.062 231.02C222.611 231.02 221.416 230.508 220.478 229.484C219.539 228.46 219.07 227.222 219.07 225.772C219.07 224.321 219.56 223.084 220.542 222.06C221.523 221.036 222.675 220.524 223.998 220.524C225.363 220.524 226.494 221.036 227.39 222.06C228.328 223.084 228.798 224.321 228.798 225.772C228.798 227.222 228.371 228.46 227.518 229.484C226.664 230.508 225.512 231.02 224.062 231.02ZM236.999 268.716V264.556C238.194 264.556 239.047 264.321 239.559 263.852C240.071 263.382 240.391 262.721 240.519 261.868C240.69 260.972 240.775 259.969 240.775 258.86V248.108C240.775 247.34 240.796 246.486 240.839 245.548C240.882 244.566 240.946 243.606 241.031 242.668C240.348 242.71 239.538 242.753 238.599 242.796C237.703 242.796 237.02 242.817 236.551 242.86V237.996C238.514 237.996 240.178 237.889 241.543 237.676C242.908 237.462 243.975 237.206 244.743 236.908C245.554 236.609 246.108 236.332 246.407 236.076H249.543C249.628 236.63 249.671 237.036 249.671 237.292C249.671 237.548 249.671 237.804 249.671 238.06C249.714 238.273 249.799 238.678 249.927 239.276C250.78 238.593 251.762 237.996 252.871 237.484C253.98 236.929 255.09 236.502 256.199 236.204C257.308 235.862 258.29 235.692 259.143 235.692C263.068 235.692 265.842 236.822 267.463 239.084C269.127 241.302 269.959 244.886 269.959 249.836V258.412C269.959 259.009 269.938 259.862 269.895 260.972C269.852 262.038 269.788 263.062 269.703 264.044C270.428 263.958 271.196 263.916 272.007 263.916C272.818 263.873 273.436 263.852 273.863 263.852V268.716H257.095V264.556C258.29 264.556 259.143 264.321 259.655 263.852C260.21 263.382 260.551 262.721 260.679 261.868C260.85 260.972 260.935 259.969 260.935 258.86L260.871 249.772C260.871 246.998 260.466 244.95 259.655 243.628C258.887 242.262 257.564 241.58 255.687 241.58C254.62 241.58 253.554 241.814 252.487 242.284C251.463 242.753 250.588 243.308 249.863 243.948C249.863 244.545 249.863 245.164 249.863 245.804C249.863 246.401 249.863 246.998 249.863 247.596V258.412C249.863 259.009 249.842 259.862 249.799 260.972C249.756 262.038 249.692 263.062 249.607 264.044C250.29 263.958 251.036 263.916 251.847 263.916C252.7 263.873 253.34 263.852 253.767 263.852V268.716H236.999ZM291.447 286.06C287.777 286.06 284.876 285.654 282.743 284.844C280.609 284.076 279.095 283.052 278.199 281.772C277.303 280.492 276.855 279.126 276.855 277.676C276.855 276.78 277.047 275.884 277.431 274.988C277.815 274.092 278.433 273.217 279.286 272.364C280.183 271.553 281.399 270.87 282.935 270.316C281.185 269.846 279.948 269.1 279.223 268.076C278.54 267.009 278.199 265.878 278.199 264.684C278.199 263.574 278.647 262.337 279.543 260.972C280.439 259.564 282.06 258.497 284.407 257.772C282.615 257.046 281.143 255.916 279.991 254.38C278.839 252.844 278.22 250.988 278.135 248.812C278.049 246.252 278.689 243.99 280.055 242.028C281.42 240.022 283.212 238.465 285.431 237.356C287.649 236.246 289.975 235.692 292.407 235.692C293.516 235.692 294.796 235.841 296.247 236.14C297.697 236.438 298.956 236.95 300.023 237.676C300.492 236.353 301.089 235.116 301.815 233.964C302.583 232.769 303.5 231.809 304.567 231.084C305.633 230.316 306.828 229.932 308.151 229.932C309.601 229.932 310.689 230.316 311.415 231.084C312.183 231.809 312.567 232.79 312.567 234.028C312.567 234.54 312.439 235.116 312.183 235.756C311.969 236.353 311.564 236.865 310.967 237.292C310.412 237.718 309.623 237.932 308.599 237.932C307.959 237.932 307.319 237.697 306.679 237.228C306.039 236.716 305.655 236.118 305.527 235.436C304.972 235.606 304.417 236.161 303.863 237.1C303.308 238.038 302.988 238.87 302.903 239.596C304.14 240.662 305.079 241.9 305.719 243.308C306.359 244.716 306.679 246.23 306.679 247.852C306.679 250.326 305.975 252.524 304.567 254.444C303.201 256.321 301.409 257.814 299.191 258.924C297.015 259.99 294.668 260.524 292.151 260.524C291.596 260.524 290.977 260.502 290.295 260.46C289.612 260.374 288.951 260.332 288.311 260.332C287.372 260.332 286.583 260.502 285.943 260.844C285.303 261.185 284.983 261.654 284.983 262.252C284.983 263.062 285.601 263.617 286.839 263.916C288.076 264.214 290.188 264.449 293.175 264.62C296.46 264.79 299.319 265.217 301.751 265.9C304.225 266.54 306.145 267.564 307.511 268.972C308.876 270.38 309.559 272.321 309.559 274.796C309.559 276.63 309.025 278.23 307.958 279.596C306.892 281.004 305.463 282.177 303.671 283.116C301.921 284.097 299.98 284.822 297.847 285.292C295.713 285.804 293.58 286.06 291.447 286.06ZM293.303 281.644C296.332 281.644 298.615 281.089 300.151 279.98C301.729 278.87 302.519 277.718 302.519 276.524C302.519 275.628 302.177 274.881 301.495 274.284C300.812 273.729 299.788 273.281 298.423 272.94C297.1 272.598 295.393 272.385 293.303 272.3C292.364 272.214 291.276 272.15 290.039 272.108C288.801 272.065 287.713 271.958 286.775 271.788C286.135 272.3 285.644 272.94 285.303 273.708C284.961 274.476 284.769 275.222 284.727 275.948C284.641 277.654 285.367 279.02 286.903 280.044C288.481 281.11 290.615 281.644 293.303 281.644ZM292.407 256.236C293.559 256.236 294.519 255.873 295.287 255.148C296.097 254.422 296.695 253.505 297.079 252.396C297.505 251.286 297.719 250.156 297.719 249.004C297.719 247.51 297.527 246.081 297.143 244.716C296.759 243.308 296.161 242.177 295.351 241.324C294.583 240.428 293.58 239.98 292.343 239.98C290.636 239.98 289.313 240.748 288.375 242.284C287.436 243.82 286.967 245.569 286.967 247.532C286.967 249.025 287.18 250.454 287.607 251.82C288.033 253.142 288.652 254.209 289.463 255.02C290.273 255.83 291.255 256.236 292.407 256.236Z" fill="#CB3C0E"/>
</svg>
