<svg width="685" height="346" viewBox="0 0 685 346" fill="none" xmlns="http://www.w3.org/2000/svg">
<rect x="331" width="26" height="74" rx="13" fill="#FFBBAC"/>
<rect width="27.0542" height="94.8389" rx="13.5271" transform="matrix(0.861341 0.508028 -0.53613 0.844136 503.453 27.0576)" fill="#FFDAD2"/>
<rect width="27.3164" height="89.936" rx="13.6582" transform="matrix(0.904049 -0.427429 0.453701 0.891154 155.727 41.5493)" fill="#FFDAD2"/>
<rect width="28.4139" height="102.936" rx="14.2069" transform="matrix(0.54824 0.836321 -0.854171 0.519993 654.041 152.193)" fill="#FFBBAC"/>
<rect width="27.0569" height="103.446" rx="13.5284" transform="matrix(-0.398207 0.917295 -0.927469 -0.373899 128.855 198.572)" fill="#FFBBAC"/>
<rect width="26.3244" height="80.7371" rx="13.1622" transform="matrix(-0.0152604 0.999884 -0.9999 -0.0141719 684.131 318.849)" fill="#FFDAD2"/>
<rect width="25.1771" height="80.7376" rx="12.5885" transform="matrix(0.00705193 0.999975 -0.999979 0.00654884 80.7961 319.816)" fill="#FFDAD2"/>
<circle cx="413.5" cy="270.5" r="8.5" fill="#351313"/>
<circle cx="273.5" cy="270.5" r="8.5" fill="#351313"/>
<path d="M317.369 296.094C315.711 296.93 315.069 298.944 316.14 300.468C319.121 304.71 323.215 308.15 328.047 310.436C333.923 313.216 340.592 314.148 347.107 313.098C353.622 312.048 359.652 309.07 364.342 304.587C368.193 300.907 370.98 296.364 372.46 291.413C372.989 289.641 371.674 287.89 369.79 287.611C367.998 287.346 366.36 288.519 365.821 290.193C364.627 293.895 362.496 297.288 359.596 300.06C355.915 303.578 351.182 305.915 346.068 306.739C340.955 307.563 335.721 306.832 331.108 304.65C327.542 302.963 324.487 300.474 322.19 297.414C321.07 295.923 319.027 295.259 317.369 296.094Z" fill="#A45142"/>
<path fill-rule="evenodd" clip-rule="evenodd" d="M500.271 193.386C541.716 233.332 565 287.509 565 344H344L123 344C123 287.509 146.284 233.331 187.729 193.386C229.175 153.441 285.387 131 344 131C402.613 131 458.825 153.441 500.271 193.386Z" fill="#FF8368" fill-opacity="0.55"/>
</svg>
