<svg width="50" height="44" viewBox="0 0 50 44" fill="none" xmlns="http://www.w3.org/2000/svg">
<path d="M33.0456 12.6248C33.0456 16.4962 27.8625 23.3953 25.5864 26.2386C25.0405 26.9192 24.0265 26.9192 23.4876 26.2386C21.2116 23.3953 16.0284 16.4962 16.0284 12.6248C16.0284 7.92381 19.836 4.11621 24.537 4.11621C29.238 4.11621 33.0456 7.92381 33.0456 12.6248ZM33.6129 18.3256C33.861 17.8363 34.0879 17.3471 34.2936 16.8649C34.329 16.7798 34.3645 16.6877 34.3999 16.6026L42.6249 13.3126C43.7452 12.8659 44.9577 13.6884 44.9577 14.8938V34.0948C44.9577 34.7897 44.5322 35.4137 43.887 35.676L33.6129 39.7814V18.3256ZM13.8729 13.9224C14.0431 14.9221 14.3834 15.929 14.7805 16.8649C14.9861 17.3471 15.213 17.8363 15.4612 18.3256V36.1511L6.44918 39.7601C5.32888 40.2068 4.11641 39.3843 4.11641 38.179V18.9779C4.11641 18.283 4.54184 17.6591 5.18707 17.3967L13.88 13.9224H13.8729ZM27.3591 27.6567C28.3446 26.4229 29.8904 24.4163 31.3439 22.197V39.8736L17.7302 35.9809V22.197C19.1837 24.4163 20.7294 26.4229 21.715 27.6567C23.1686 29.4718 25.9055 29.4718 27.3591 27.6567V27.6567ZM24.537 14.8938C26.104 14.8938 27.3732 13.6246 27.3732 12.0576C27.3732 10.4906 26.104 9.22137 24.537 9.22137C22.97 9.22137 21.7008 10.4906 21.7008 12.0576C21.7008 13.6246 22.97 14.8938 24.537 14.8938Z" fill="#191D2D"/>
</svg>
