<svg width="28" height="28" viewBox="0 0 28 28" fill="none" xmlns="http://www.w3.org/2000/svg">
<path d="M14.0136 10.6806C13.196 10.6806 12.4304 10.9978 11.8507 11.5774C11.2738 12.1571 10.9539 12.9228 10.9539 13.7403C10.9539 14.5579 11.2738 15.3235 11.8507 15.9032C12.4304 16.4802 13.196 16.8001 14.0136 16.8001C14.8312 16.8001 15.5968 16.4802 16.1765 15.9032C16.7535 15.3235 17.0734 14.5579 17.0734 13.7403C17.0734 12.9228 16.7535 12.1571 16.1765 11.5774C15.8934 11.2921 15.5564 11.0659 15.1851 10.912C14.8138 10.758 14.4156 10.6793 14.0136 10.6806V10.6806ZM25.2875 17.12L23.4992 15.5915C23.5839 15.072 23.6277 14.5415 23.6277 14.0138C23.6277 13.486 23.5839 12.9528 23.4992 12.436L25.2875 10.9075C25.4225 10.7919 25.5192 10.6378 25.5647 10.4659C25.6101 10.294 25.6021 10.1123 25.5418 9.94502L25.5171 9.87393C25.025 8.49769 24.2876 7.22201 23.3406 6.10869L23.2914 6.05127C23.1764 5.91606 23.0231 5.81886 22.8518 5.77249C22.6804 5.72612 22.4991 5.73275 22.3316 5.7915L20.1113 6.58174C19.291 5.90908 18.3777 5.37861 17.3878 5.00947L16.9585 2.68799C16.9262 2.5131 16.8413 2.35221 16.7153 2.22669C16.5893 2.10117 16.4281 2.01696 16.2531 1.98525L16.1793 1.97158C14.7574 1.71455 13.2589 1.71455 11.8371 1.97158L11.7632 1.98525C11.5882 2.01696 11.427 2.10117 11.301 2.22669C11.175 2.35221 11.0902 2.5131 11.0578 2.68799L10.6257 5.02041C9.64526 5.39249 8.73189 5.92168 7.92144 6.58721L5.68472 5.7915C5.51728 5.73228 5.33579 5.72542 5.16435 5.77182C4.99292 5.81821 4.83966 5.91568 4.72495 6.05127L4.67573 6.10869C3.73044 7.2232 2.99319 8.49856 2.49917 9.87393L2.47456 9.94502C2.35151 10.2868 2.45269 10.6696 2.72886 10.9075L4.53901 12.4524C4.45425 12.9665 4.41323 13.4915 4.41323 14.011C4.41323 14.536 4.45425 15.061 4.53901 15.5696L2.73433 17.1146C2.59924 17.2302 2.50255 17.3842 2.45713 17.5562C2.4117 17.7281 2.41969 17.9098 2.48003 18.077L2.50464 18.1481C2.99956 19.5235 3.72964 20.795 4.6812 21.9134L4.73042 21.9708C4.84541 22.106 4.99867 22.2032 5.17001 22.2496C5.34134 22.2959 5.5227 22.2893 5.69019 22.2306L7.92691 21.4349C8.74175 22.1048 9.64956 22.6353 10.6312 23.0017L11.0632 25.3341C11.0956 25.509 11.1805 25.6699 11.3065 25.7954C11.4325 25.9209 11.5937 26.0051 11.7687 26.0368L11.8425 26.0505C13.2784 26.3089 14.7489 26.3089 16.1847 26.0505L16.2585 26.0368C16.4336 26.0051 16.5948 25.9209 16.7208 25.7954C16.8468 25.6699 16.9316 25.509 16.964 25.3341L17.3933 23.0126C18.3832 22.6407 19.2964 22.113 20.1168 21.4403L22.3371 22.2306C22.5045 22.2898 22.686 22.2967 22.8574 22.2503C23.0289 22.2039 23.1821 22.1064 23.2968 21.9708L23.346 21.9134C24.2976 20.7896 25.0277 19.5235 25.5226 18.1481L25.5472 18.077C25.6648 17.738 25.5636 17.3579 25.2875 17.12ZM14.0136 18.5474C11.3585 18.5474 9.20659 16.3954 9.20659 13.7403C9.20659 11.0853 11.3585 8.9333 14.0136 8.9333C16.6687 8.9333 18.8207 11.0853 18.8207 13.7403C18.8207 16.3954 16.6687 18.5474 14.0136 18.5474Z" fill="white"/>
</svg>
