<svg width="44" height="44" viewBox="0 0 44 44" fill="none" xmlns="http://www.w3.org/2000/svg">
<path d="M22 12.8335C19.5689 12.8335 17.2373 13.7993 15.5182 15.5184C13.7991 17.2374 12.8333 19.569 12.8333 22.0002C12.8333 24.4313 13.7991 26.7629 15.5182 28.482C17.2373 30.2011 19.5689 31.1668 22 31.1668C24.4312 31.1668 26.7627 30.2011 28.4818 28.482C30.2009 26.7629 31.1667 24.4313 31.1667 22.0002C31.1667 19.569 30.2009 17.2374 28.4818 15.5184C26.7627 13.7993 24.4312 12.8335 22 12.8335V12.8335Z" fill="#191D2D"/>
<path fill-rule="evenodd" clip-rule="evenodd" d="M22 1.8335C22.4862 1.8335 22.9526 2.02665 23.2964 2.37047C23.6402 2.71428 23.8333 3.1806 23.8333 3.66683V5.50016C23.8333 5.98639 23.6402 6.45271 23.2964 6.79653C22.9526 7.14034 22.4862 7.3335 22 7.3335C21.5138 7.3335 21.0475 7.14034 20.7037 6.79653C20.3598 6.45271 20.1667 5.98639 20.1667 5.50016V3.66683C20.1667 3.1806 20.3598 2.71428 20.7037 2.37047C21.0475 2.02665 21.5138 1.8335 22 1.8335V1.8335ZM6.03718 6.03733C6.38098 5.69363 6.84721 5.50055 7.33334 5.50055C7.81948 5.50055 8.28571 5.69363 8.62951 6.03733L11.3795 8.78733C11.7135 9.1331 11.8983 9.59621 11.8941 10.0769C11.8899 10.5576 11.6971 11.0174 11.3572 11.3573C11.0173 11.6972 10.5574 11.8901 10.0767 11.8942C9.59605 11.8984 9.13295 11.7136 8.78718 11.3797L6.03718 8.62966C5.69348 8.28586 5.5004 7.81963 5.5004 7.3335C5.5004 6.84736 5.69348 6.38113 6.03718 6.03733V6.03733ZM37.9629 6.03733C38.3065 6.38113 38.4996 6.84736 38.4996 7.3335C38.4996 7.81963 38.3065 8.28586 37.9629 8.62966L35.2128 11.3797C35.0437 11.5548 34.8414 11.6944 34.6178 11.7905C34.3941 11.8866 34.1535 11.9372 33.9101 11.9393C33.6667 11.9414 33.4252 11.895 33.1999 11.8028C32.9746 11.7107 32.7699 11.5745 32.5978 11.4024C32.4257 11.2303 32.2895 11.0256 32.1973 10.8002C32.1052 10.5749 32.0588 10.3335 32.0609 10.0901C32.063 9.84667 32.1136 9.6061 32.2097 9.38242C32.3057 9.15875 32.4454 8.95645 32.6205 8.78733L35.3705 6.03733C35.7143 5.69363 36.1805 5.50055 36.6667 5.50055C37.1528 5.50055 37.619 5.69363 37.9629 6.03733ZM1.83334 22.0002C1.83334 21.5139 2.0265 21.0476 2.37031 20.7038C2.71413 20.36 3.18045 20.1668 3.66668 20.1668H5.50001C5.98624 20.1668 6.45256 20.36 6.79637 20.7038C7.14019 21.0476 7.33334 21.5139 7.33334 22.0002C7.33334 22.4864 7.14019 22.9527 6.79637 23.2965C6.45256 23.6403 5.98624 23.8335 5.50001 23.8335H3.66668C3.18045 23.8335 2.71413 23.6403 2.37031 23.2965C2.0265 22.9527 1.83334 22.4864 1.83334 22.0002ZM36.6667 22.0002C36.6667 21.5139 36.8598 21.0476 37.2037 20.7038C37.5475 20.36 38.0138 20.1668 38.5 20.1668H40.3333C40.8196 20.1668 41.2859 20.36 41.6297 20.7038C41.9735 21.0476 42.1667 21.5139 42.1667 22.0002C42.1667 22.4864 41.9735 22.9527 41.6297 23.2965C41.2859 23.6403 40.8196 23.8335 40.3333 23.8335H38.5C38.0138 23.8335 37.5475 23.6403 37.2037 23.2965C36.8598 22.9527 36.6667 22.4864 36.6667 22.0002ZM11.3795 32.6207C11.7232 32.9645 11.9163 33.4307 11.9163 33.9168C11.9163 34.403 11.7232 34.8692 11.3795 35.213L8.62951 37.963C8.28374 38.297 7.82064 38.4817 7.33994 38.4776C6.85925 38.4734 6.39943 38.2806 6.05951 37.9407C5.7196 37.6008 5.52679 37.1409 5.52261 36.6602C5.51843 36.1795 5.70322 35.7164 6.03718 35.3707L8.78718 32.6207C9.13098 32.277 9.59721 32.0839 10.0833 32.0839C10.5695 32.0839 11.0357 32.277 11.3795 32.6207V32.6207ZM32.6205 32.6207C32.9643 32.277 33.4305 32.0839 33.9167 32.0839C34.4028 32.0839 34.869 32.277 35.2128 32.6207L37.9629 35.3707C38.2968 35.7164 38.4816 36.1795 38.4774 36.6602C38.4732 37.1409 38.2804 37.6008 37.9405 37.9407C37.6006 38.2806 37.1408 38.4734 36.6601 38.4776C36.1794 38.4817 35.7163 38.297 35.3705 37.963L32.6205 35.213C32.2768 34.8692 32.0837 34.403 32.0837 33.9168C32.0837 33.4307 32.2768 32.9645 32.6205 32.6207ZM22 36.6668C22.4862 36.6668 22.9526 36.86 23.2964 37.2038C23.6402 37.5476 23.8333 38.0139 23.8333 38.5002V40.3335C23.8333 40.8197 23.6402 41.286 23.2964 41.6299C22.9526 41.9737 22.4862 42.1668 22 42.1668C21.5138 42.1668 21.0475 41.9737 20.7037 41.6299C20.3598 41.286 20.1667 40.8197 20.1667 40.3335V38.5002C20.1667 38.0139 20.3598 37.5476 20.7037 37.2038C21.0475 36.86 21.5138 36.6668 22 36.6668V36.6668Z" fill="#191D2D"/>
</svg>
