<svg width="64" height="104" viewBox="0 0 64 104" fill="none" xmlns="http://www.w3.org/2000/svg">
<rect x="29.8271" y="54.7158" width="4.74074" height="34.3704" rx="2.37037" fill="#FF4C14"/>
<path d="M31.5 25C28.1848 25 25.0054 26.317 22.6612 28.6612C20.317 31.0054 19 34.1848 19 37.5C19 40.8152 20.317 43.9946 22.6612 46.3388C25.0054 48.683 28.1848 50 31.5 50C34.8152 50 37.9946 48.683 40.3388 46.3388C42.683 43.9946 44 40.8152 44 37.5C44 34.1848 42.683 31.0054 40.3388 28.6612C37.9946 26.317 34.8152 25 31.5 25V25Z" fill="#F93D00"/>
<path fill-rule="evenodd" clip-rule="evenodd" d="M32.1976 14.2217C32.7739 14.2217 33.3266 14.4506 33.7341 14.8581C34.1415 15.2656 34.3705 15.8182 34.3705 16.3945V18.5674C34.3705 19.1436 34.1415 19.6963 33.7341 20.1038C33.3266 20.5113 32.7739 20.7402 32.1976 20.7402C31.6214 20.7402 31.0687 20.5113 30.6612 20.1038C30.2537 19.6963 30.0248 19.1436 30.0248 18.5674V16.3945C30.0248 15.8182 30.2537 15.2656 30.6612 14.8581C31.0687 14.4506 31.6214 14.2217 32.1976 14.2217V14.2217ZM13.2787 19.204C13.6862 18.7967 14.2387 18.5678 14.8149 18.5678C15.3911 18.5678 15.9436 18.7967 16.3511 19.204L19.6104 22.4633C20.0062 22.8731 20.2252 23.4219 20.2202 23.9916C20.2153 24.5614 19.9868 25.1063 19.5839 25.5092C19.181 25.9121 18.6361 26.1406 18.0663 26.1455C17.4966 26.1505 16.9478 25.9315 16.538 25.5357L13.2787 22.2764C12.8714 21.8689 12.6425 21.3164 12.6425 20.7402C12.6425 20.164 12.8714 19.6115 13.2787 19.204V19.204ZM51.1165 19.204C51.5239 19.6115 51.7527 20.164 51.7527 20.7402C51.7527 21.3164 51.5239 21.8689 51.1165 22.2764L47.8573 25.5357C47.6568 25.7432 47.4171 25.9087 47.152 26.0226C46.8869 26.1365 46.6018 26.1964 46.3133 26.1989C46.0248 26.2014 45.7386 26.1464 45.4716 26.0372C45.2046 25.9279 44.962 25.7666 44.758 25.5626C44.5539 25.3586 44.3926 25.116 44.2833 24.8489C44.1741 24.5819 44.1191 24.2958 44.1216 24.0073C44.1241 23.7188 44.1841 23.4337 44.298 23.1686C44.4118 22.9035 44.5774 22.6637 44.7849 22.4633L48.0441 19.204C48.4516 18.7967 49.0042 18.5678 49.5803 18.5678C50.1565 18.5678 50.7091 18.7967 51.1165 19.204ZM8.29639 38.1229C8.29639 37.5466 8.52531 36.994 8.9328 36.5865C9.34028 36.179 9.89295 35.9501 10.4692 35.9501H12.6421C13.2183 35.9501 13.771 36.179 14.1785 36.5865C14.586 36.994 14.8149 37.5466 14.8149 38.1229C14.8149 38.6992 14.586 39.2519 14.1785 39.6593C13.771 40.0668 13.2183 40.2958 12.6421 40.2958H10.4692C9.89295 40.2958 9.34028 40.0668 8.9328 39.6593C8.52531 39.2519 8.29639 38.6992 8.29639 38.1229ZM49.5803 38.1229C49.5803 37.5466 49.8093 36.994 50.2168 36.5865C50.6242 36.179 51.1769 35.9501 51.7532 35.9501H53.926C54.5023 35.9501 55.055 36.179 55.4625 36.5865C55.8699 36.994 56.0989 37.5466 56.0989 38.1229C56.0989 38.6992 55.8699 39.2519 55.4625 39.6593C55.055 40.0668 54.5023 40.2958 53.926 40.2958H51.7532C51.1769 40.2958 50.6242 40.0668 50.2168 39.6593C49.8093 39.2519 49.5803 38.6992 49.5803 38.1229ZM19.6104 50.7102C20.0177 51.1176 20.2465 51.6702 20.2465 52.2464C20.2465 52.8225 20.0177 53.3751 19.6104 53.7826L16.3511 57.0418C15.9413 57.4376 15.3924 57.6566 14.8227 57.6517C14.253 57.6467 13.708 57.4182 13.3052 57.0154C12.9023 56.6125 12.6738 56.0675 12.6688 55.4978C12.6639 54.9281 12.8829 54.3792 13.2787 53.9694L16.538 50.7102C16.9454 50.3028 17.498 50.074 18.0742 50.074C18.6503 50.074 19.2029 50.3028 19.6104 50.7102V50.7102ZM44.7849 50.7102C45.1924 50.3028 45.7449 50.074 46.3211 50.074C46.8972 50.074 47.4498 50.3028 47.8573 50.7102L51.1165 53.9694C51.5123 54.3792 51.7314 54.9281 51.7264 55.4978C51.7215 56.0675 51.4929 56.6125 51.0901 57.0154C50.6872 57.4182 50.1422 57.6467 49.5725 57.6517C49.0028 57.6566 48.4539 57.4376 48.0441 57.0418L44.7849 53.7826C44.3775 53.3751 44.1487 52.8225 44.1487 52.2464C44.1487 51.6702 44.3775 51.1176 44.7849 50.7102ZM32.1976 55.5056C32.7739 55.5056 33.3266 55.7346 33.7341 56.142C34.1415 56.5495 34.3705 57.1022 34.3705 57.6785V59.8513C34.3705 60.4276 34.1415 60.9803 33.7341 61.3877C33.3266 61.7952 32.7739 62.0242 32.1976 62.0242C31.6214 62.0242 31.0687 61.7952 30.6612 61.3877C30.2537 60.9803 30.0248 60.4276 30.0248 59.8513V57.6785C30.0248 57.1022 30.2537 56.5495 30.6612 56.142C31.0687 55.7346 31.6214 55.5056 32.1976 55.5056V55.5056Z" fill="#FF4C14"/>
<circle cx="31.5" cy="37.5" r="3.5" fill="white"/>
</svg>
